<svg version="1.1" id="Layer_1" xmlns="http://www.w3.org/2000/svg" xmlns:xlink="http://www.w3.org/1999/xlink" x="0px" y="0px"
	 width="100%" viewBox="0 0 500 500" enable-background="new 0 0 500 500" xml:space="preserve">
<path fill="#110F16" opacity="1.000000" stroke="none" 
	d="
M324.000000,501.000000 
	C217.333359,501.000000 111.166695,500.978821 5.000181,501.095428 
	C1.576335,501.099182 0.903033,500.423889 0.905298,497.000031 
	C1.013776,333.000122 1.013757,169.000153 0.905338,5.000257 
	C0.903075,1.576981 1.575761,0.903020 4.999866,0.905285 
	C168.999756,1.013775 332.999725,1.013761 496.999634,0.905354 
	C500.422638,0.903092 501.096985,1.575409 501.094727,4.999746 
	C500.986206,168.999634 500.986237,332.999603 501.094604,496.999512 
	C501.096893,500.422272 500.426025,501.105225 497.000183,501.097107 
	C439.500366,500.961182 382.000153,501.000000 324.000000,501.000000 
z"/>
<path fill="#FEFEFE" opacity="1.000000" stroke="none" 
	d="
M225.864777,89.864738 
	C236.729004,79.016846 247.327194,68.402817 257.962372,57.825962 
	C265.529205,50.300606 271.822937,50.352650 279.442627,57.936134 
	C283.222626,61.698166 286.998962,65.463989 290.755463,69.249428 
	C297.937683,76.486916 298.000397,82.742134 290.794556,89.944283 
	C257.317963,123.403732 223.807037,156.828873 190.310425,190.268311 
	C170.495483,210.049423 150.689255,229.839310 130.869003,249.615112 
	C123.131805,257.334991 117.205383,257.350250 109.460968,249.687653 
	C105.551559,245.819473 101.643623,241.948898 97.791077,238.024384 
	C90.858894,230.962753 90.873894,224.644821 97.886307,217.640564 
	C140.453491,175.122986 183.036682,132.621414 225.864777,89.864738 
z"/>
<path fill="#FEFDFE" opacity="1.000000" stroke="none" 
	d="
M295.043488,243.956848 
	C303.316223,252.197617 311.359528,260.168060 319.346924,268.194092 
	C326.457275,275.338898 326.485199,281.847504 319.500732,288.889740 
	C315.396545,293.027893 311.305756,297.180969 307.128357,301.244476 
	C300.473114,307.718323 294.075439,307.757904 287.526001,301.287140 
	C273.785156,287.711365 260.108582,274.070587 246.402847,260.459259 
	C241.328445,255.419830 238.861221,255.391266 233.886276,260.351074 
	C218.555725,275.635071 203.242157,290.936066 187.905594,306.214020 
	C179.998581,314.090820 173.996719,314.097198 166.113800,306.269684 
	C161.978058,302.163025 157.776184,298.117065 153.774643,293.882599 
	C148.056427,287.831573 148.003632,281.257324 153.871811,275.368195 
	C179.495422,249.653214 205.182312,224.000977 230.924088,198.404266 
	C236.694519,192.666397 243.548157,192.789246 249.451035,198.619461 
	C264.615692,213.597488 279.683289,228.673737 295.043488,243.956848 
z"/>
<path fill="#FEFEFE" opacity="1.000000" stroke="none" 
	d="
M381.081726,216.918488 
	C389.111450,224.938248 396.905823,232.693451 404.666901,240.481827 
	C411.131317,246.968964 411.207092,254.123230 404.877869,260.540253 
	C400.549591,264.928589 396.230621,269.329773 391.787292,273.600159 
	C385.538513,279.605835 378.984619,279.685028 372.893066,273.620026 
	C339.837097,240.708130 306.825165,207.751923 273.849579,174.759521 
	C267.500427,168.407150 267.538116,161.957596 273.748444,155.572174 
	C277.929291,151.273438 282.217346,147.078445 286.482727,142.862640 
	C293.371399,136.054077 299.930573,136.034790 306.856232,142.925064 
	C329.767548,165.719330 352.642609,188.549988 375.530945,211.367386 
	C377.300690,213.131607 379.065033,214.901199 381.081726,216.918488 
z"/>
<path fill="#FCFCFC" opacity="1.000000" stroke="none" 
	d="
M419.020325,378.875000 
	C432.083008,378.875000 432.081940,378.875427 436.689545,390.754913 
	C439.933044,399.117493 443.175537,407.480499 446.448547,415.831573 
	C446.537689,416.059052 446.972382,416.151154 447.573425,416.492126 
	C451.788483,405.303070 456.085571,394.218903 460.099304,383.033051 
	C461.213287,379.928558 462.572266,378.453705 466.114197,378.784882 
	C470.244690,379.171112 474.444122,379.000580 478.603546,378.828430 
	C481.066498,378.726501 482.079498,379.248444 482.059509,382.041962 
	C481.930573,400.040680 481.945892,418.041016 482.048676,436.040070 
	C482.062836,438.521515 481.225281,438.978577 478.923615,439.066956 
	C465.126190,439.596771 465.128632,439.660095 465.128632,426.191193 
	C465.128632,420.597321 465.128632,415.003479 465.128632,409.409607 
	C464.810547,409.342590 464.492462,409.275574 464.174347,409.208557 
	C461.371948,417.422974 458.348145,425.571167 455.863403,433.880554 
	C454.675354,437.853546 452.898651,439.310089 448.626862,439.121826 
	C439.880524,438.736420 439.881653,439.004303 436.958008,430.443909 
	C434.560455,423.423950 432.126770,416.416290 428.617584,409.483337 
	C428.617584,417.292267 428.275513,425.121643 428.740295,432.902802 
	C429.039948,437.920044 427.684296,439.358093 422.563110,439.142822 
	C411.813019,438.690857 411.799744,439.006836 411.799744,428.223114 
	C411.799744,414.056732 411.799683,399.890381 411.799805,385.723999 
	C411.799835,378.876221 411.799988,378.876221 419.020325,378.875000 
z"/>
<path fill="#FAFAFA" opacity="1.000000" stroke="none" 
	d="
M312.253296,393.701355 
	C316.248901,399.778198 320.045990,405.552795 323.843048,411.327423 
	C324.148254,411.242157 324.453430,411.156921 324.758636,411.071686 
	C324.758636,401.682556 324.903778,392.289978 324.679840,382.906250 
	C324.601562,379.626312 325.547241,378.780579 328.800781,378.786621 
	C341.576202,378.810394 341.576416,378.689545 341.576416,391.261292 
	C341.576416,405.751923 341.455780,420.244263 341.662476,434.731964 
	C341.713226,438.288574 340.508087,438.685425 337.242218,439.183167 
	C327.997101,440.592285 322.177704,437.330963 317.837799,429.011749 
	C313.866302,421.398804 308.470581,414.528839 303.673096,407.287109 
	C301.881683,408.120209 302.679596,409.645508 302.668365,410.772705 
	C302.587128,418.933289 302.468445,427.099518 302.702087,435.254211 
	C302.793640,438.450348 301.727905,439.287201 298.731201,439.060425 
	C294.613037,438.748749 289.240234,440.331329 286.669220,438.273438 
	C283.943787,436.091980 285.875244,430.501068 285.841339,426.412354 
	C285.721130,411.922729 285.889313,397.430389 285.720978,382.941711 
	C285.683746,379.737915 286.587891,379.135406 289.773621,378.707153 
	C299.082123,377.455750 305.835083,380.003998 309.363556,389.210785 
	C309.944946,390.727875 311.142120,392.008972 312.253296,393.701355 
z"/>
<path fill="#FAFAFA" opacity="1.000000" stroke="none" 
	d="
M265.242249,439.009033 
	C261.120117,439.710846 259.085480,438.117645 257.543427,434.762817 
	C255.257446,429.789429 252.471207,425.040924 249.785126,420.260040 
	C249.114944,419.067230 248.968964,417.259155 246.241577,417.033325 
	C246.241577,423.137512 246.065414,429.185516 246.315063,435.215881 
	C246.442078,438.284515 245.607285,439.328033 242.473770,439.072601 
	C238.338684,438.735504 232.948563,440.400940 230.342316,438.351471 
	C227.562225,436.165283 229.505829,430.542267 229.471054,426.433716 
	C229.348358,411.941223 229.519226,397.445892 229.350266,382.954346 
	C229.312088,379.680511 230.203308,378.685516 233.521988,378.792664 
	C242.176453,379.072144 250.862366,378.621368 259.500854,379.096405 
	C273.797424,379.882599 282.297943,393.122589 276.850311,405.614105 
	C275.194427,409.411102 272.618622,412.625977 268.711792,413.989319 
	C264.949188,415.302307 265.849579,416.925995 267.316559,419.373932 
	C271.049835,425.603485 274.611176,431.936127 278.692230,439.009033 
	C273.846344,439.009033 269.775299,439.009033 265.242249,439.009033 
z"/>
<path fill="#FCFCFC" opacity="1.000000" stroke="none" 
	d="
M40.448914,378.875732 
	C46.330753,379.245483 53.026039,376.677429 56.851543,379.890869 
	C60.393600,382.866241 61.016586,389.361877 62.829247,394.342194 
	C68.159668,408.987579 73.442482,423.650238 78.994812,438.999695 
	C73.401512,438.999695 68.192513,438.937653 62.986095,439.026703 
	C60.497765,439.069214 60.382256,437.012177 60.198105,435.646118 
	C59.440151,430.023560 56.290977,428.251038 50.992283,429.126282 
	C49.371929,429.393951 47.643665,429.359070 46.010139,429.133911 
	C39.762161,428.272705 34.963531,429.479065 34.206497,436.889343 
	C33.996586,438.944000 32.615467,439.035919 31.004322,439.020813 
	C26.183521,438.975708 21.362026,439.004608 15.935797,439.004608 
	C18.740622,431.236969 21.407993,423.822052 24.095259,416.414398 
	C28.170336,405.181122 32.223457,393.939575 36.380764,382.736755 
	C37.005989,381.051941 37.007793,378.477325 40.448914,378.875732 
z"/>
<path fill="#FCFCFC" opacity="1.000000" stroke="none" 
	d="
M402.681335,400.997559 
	C402.547546,407.318604 402.991425,413.150085 402.123627,418.958862 
	C400.195923,431.861725 389.296844,440.286469 375.200134,439.673920 
	C361.029144,439.058167 351.500732,430.352753 351.009674,416.861267 
	C350.585815,405.214935 350.895905,393.543274 350.734344,381.884857 
	C350.700623,379.448975 351.511597,378.911285 353.845947,378.810852 
	C367.457703,378.225189 367.450104,378.158295 367.456757,391.909149 
	C367.460297,399.238556 367.314514,406.573364 367.546875,413.895844 
	C367.765991,420.801910 370.891296,423.990540 376.707520,423.882904 
	C382.411865,423.777374 385.667572,420.342407 385.783386,413.633972 
	C385.961609,403.308716 385.969818,392.975708 385.767670,382.651520 
	C385.706787,379.543610 386.542084,378.558319 389.640991,378.814758 
	C393.770477,379.156525 399.146057,377.536774 401.755219,379.592041 
	C404.549408,381.792999 402.421570,387.395355 402.649017,391.504456 
	C402.814514,394.493805 402.681335,397.499725 402.681335,400.997559 
z"/>
<path fill="#FAFAFA" opacity="1.000000" stroke="none" 
	d="
M122.365715,425.851990 
	C123.755859,439.008972 123.755859,439.008972 110.951385,439.008942 
	C103.286758,439.008942 95.618668,438.876434 87.959259,439.076385 
	C85.042419,439.152557 84.350037,438.173126 84.367416,435.402496 
	C84.478210,417.741241 84.485191,400.078491 84.362747,382.417389 
	C84.342682,379.524536 85.277702,378.774445 88.058540,378.812561 
	C98.553780,378.956360 109.052666,378.924500 119.548996,378.828766 
	C121.892899,378.807373 123.025185,379.065216 123.098808,381.951538 
	C123.361374,392.245148 123.501686,392.241577 113.246399,392.241577 
	C110.747063,392.241577 108.213600,392.502869 105.756187,392.181946 
	C101.816154,391.667358 101.211403,393.375732 101.090195,396.943481 
	C100.948120,401.125488 102.138374,402.545898 106.307991,402.089447 
	C109.600975,401.728943 112.991051,402.277771 116.290451,401.947540 
	C119.977737,401.578491 120.664047,403.092957 120.602798,406.443878 
	C120.448303,414.895813 120.609116,414.898682 112.279877,414.898712 
	C110.280411,414.898712 108.248123,415.129669 106.288239,414.851166 
	C102.088860,414.254395 101.176193,415.919800 101.057915,420.012787 
	C100.919266,424.810547 102.554932,425.958435 106.975876,425.648590 
	C111.947868,425.300171 116.965904,425.608765 122.365715,425.851990 
z"/>
<path fill="#FDFDFD" opacity="1.000000" stroke="none" 
	d="
M221.233093,386.991699 
	C221.993530,391.488159 220.229782,392.607422 216.386246,392.309662 
	C212.082260,391.976288 207.708740,392.518036 203.408981,392.158600 
	C198.454865,391.744415 199.794373,395.091949 199.606842,397.675995 
	C199.410812,400.377014 199.402100,402.516785 203.331604,402.112579 
	C207.286484,401.705719 211.326889,402.204559 215.309021,401.963318 
	C218.247787,401.785248 218.868576,402.895721 218.893448,405.651001 
	C218.976868,414.892639 219.092056,414.891571 209.880539,414.891571 
	C208.215225,414.891571 206.511444,415.120209 204.891983,414.847717 
	C200.444412,414.099426 199.429153,415.872467 199.434692,420.206726 
	C199.440277,424.586395 200.511307,426.107300 204.983185,425.665588 
	C209.271149,425.242096 213.641907,425.735107 217.960678,425.516907 
	C220.715271,425.377716 221.234879,426.445587 221.298798,428.977692 
	C221.551971,439.005493 221.646622,439.003082 211.720413,439.003082 
	C203.393845,439.003082 195.065445,438.904449 186.741730,439.058411 
	C183.953461,439.109955 182.671997,438.782440 182.710083,435.394806 
	C182.908493,417.744690 182.861191,400.090790 182.742294,382.439240 
	C182.723526,379.654236 183.445999,378.762268 186.311417,378.812073 
	C196.133789,378.982849 205.973892,379.174988 215.780777,378.749420 
	C220.541229,378.542816 221.952972,380.154419 221.247757,384.502441 
	C221.142502,385.151489 221.233093,385.832306 221.233093,386.991699 
z"/>
<path fill="#FBFBFB" opacity="1.000000" stroke="none" 
	d="
M165.970215,378.872772 
	C166.631760,378.872772 166.798203,378.872772 166.964661,378.872772 
	C177.546478,378.872772 177.474289,378.867859 176.762497,389.296082 
	C176.617828,391.415497 176.048874,392.286316 173.879822,392.183807 
	C171.222534,392.058197 168.504501,392.482849 165.902481,392.083984 
	C161.210861,391.364929 160.481674,393.449768 160.569489,397.610260 
	C160.832901,410.088654 160.583435,422.577148 160.724777,435.059540 
	C160.757446,437.944489 160.275711,439.425232 156.968216,439.052917 
	C152.719025,438.574615 147.044006,440.844482 144.559311,438.134399 
	C142.455688,435.839966 143.862686,430.260284 143.844254,426.133881 
	C143.799652,416.146881 143.681213,406.156097 143.912125,396.174255 
	C143.990814,392.771606 142.848221,391.751404 139.668762,392.118256 
	C137.861847,392.326752 135.968735,391.903625 134.188141,392.203125 
	C128.927261,393.087982 127.484512,390.967377 127.834610,385.837128 
	C128.308197,378.897156 127.952110,378.872803 135.014160,378.872772 
	C145.167816,378.872742 155.321472,378.872772 165.970215,378.872772 
z"/>
<path fill="#F0F0F0" opacity="1.000000" stroke="none" 
	d="
M185.997864,358.429749 
	C185.997604,361.363770 186.018051,363.856537 185.988388,366.348724 
	C185.973419,367.606415 186.350891,369.062347 184.179886,369.051544 
	C182.181488,369.041595 182.161346,367.846771 182.165863,366.425507 
	C182.182770,361.108185 182.127151,355.790161 182.205338,350.473938 
	C182.222626,349.298828 181.491409,347.623291 183.395432,347.151855 
	C185.000336,346.754456 186.189758,347.358765 187.135468,348.840851 
	C189.798218,353.013885 192.599228,357.098694 195.716812,361.774933 
	C197.311874,357.647552 196.249329,353.908783 196.617523,350.314209 
	C196.752747,348.994110 195.944580,347.072144 198.451538,347.080597 
	C200.988998,347.089172 200.199265,349.046356 200.218842,350.337280 
	C200.296890,355.487305 200.309830,360.640381 200.204330,365.789459 
	C200.181732,366.892731 201.123001,368.611145 199.014954,368.992432 
	C197.385422,369.287170 196.261871,368.704071 195.325119,367.216339 
	C192.596878,362.883423 189.701752,358.655548 186.826614,354.317902 
	C185.317642,355.391113 186.309433,356.828552 185.997864,358.429749 
z"/>
<path fill="#EDEDEE" opacity="1.000000" stroke="none" 
	d="
M326.010101,361.737732 
	C330.070953,366.636749 335.014862,367.177917 337.912506,363.371490 
	C338.507568,362.589844 339.289398,361.730286 338.859009,360.687164 
	C338.361481,359.481293 337.118164,360.266907 336.255035,359.991852 
	C334.571472,359.455353 331.310089,361.278412 331.399231,358.531464 
	C331.501373,355.384094 334.892059,357.099121 336.663361,357.135193 
	C338.847809,357.179718 342.215820,355.380341 343.127350,358.402100 
	C344.080963,361.563385 342.138885,364.511871 339.581421,366.682281 
	C335.149200,370.443787 328.156830,369.981262 324.223083,365.707458 
	C320.266235,361.408539 320.336761,354.470673 324.379944,350.282562 
	C328.379852,346.139221 335.506714,345.710938 339.807037,349.449005 
	C340.873657,350.376160 342.776428,351.586060 341.804504,352.987915 
	C340.751770,354.506439 338.870270,353.826813 337.537903,352.521545 
	C334.750458,349.790710 331.458740,349.549652 328.436401,351.609314 
	C324.995483,353.954193 324.423126,357.509033 326.010101,361.737732 
z"/>
<path fill="#EEEEEF" opacity="1.000000" stroke="none" 
	d="
M446.122009,361.931641 
	C444.315186,359.218903 442.693085,356.818542 441.070984,354.418213 
	C440.777008,354.517273 440.483063,354.616333 440.189087,354.715393 
	C440.189087,358.457184 440.229797,362.199615 440.167297,365.940338 
	C440.144989,367.275360 440.811707,369.138855 438.248413,369.032074 
	C436.136261,368.944153 436.513763,367.422821 436.506134,366.175781 
	C436.473602,360.854279 436.451752,355.531891 436.522491,350.211121 
	C436.538025,349.044312 435.885345,347.373322 437.966431,347.094116 
	C439.424438,346.898529 440.447784,347.409790 441.287445,348.709869 
	C444.123932,353.101471 447.072174,357.420898 450.883270,361.510406 
	C450.883270,357.609131 450.857025,353.707550 450.898560,349.806702 
	C450.911713,348.573151 450.514557,347.028290 452.689270,347.062897 
	C454.710266,347.095093 454.631348,348.465668 454.634918,349.809967 
	C454.649353,355.297943 454.664276,360.786163 454.623474,366.273865 
	C454.615631,367.327850 455.089569,368.774170 453.316162,368.983215 
	C451.964844,369.142548 450.718170,369.082550 449.872742,367.645508 
	C448.780243,365.788452 447.503937,364.039520 446.122009,361.931641 
z"/>
<path fill="#E9E9EA" opacity="1.000000" stroke="none" 
	d="
M164.041748,350.313354 
	C164.041946,355.935181 164.071671,361.086639 164.019028,366.237244 
	C164.007126,367.403717 164.617950,369.005646 162.369888,369.058594 
	C160.042694,369.113434 160.215195,367.614288 160.195328,366.073883 
	C160.153717,362.845795 161.554596,359.140656 155.500763,359.463318 
	C151.183197,359.693420 149.539307,360.609772 150.097031,365.018890 
	C150.262878,366.330170 151.592194,369.077179 148.255020,369.005280 
	C145.390854,368.943604 146.557022,366.615997 146.521545,365.252869 
	C146.387634,360.105225 146.462830,354.951965 146.476166,349.800842 
	C146.479614,348.468811 146.352570,347.070343 148.389481,347.064362 
	C150.520996,347.058105 150.015976,348.584747 150.226456,349.829407 
	C150.686646,352.550476 148.203674,356.460022 154.295959,356.620239 
	C159.697678,356.762238 160.897415,354.863373 160.245956,350.186401 
	C160.047760,348.763519 159.919983,347.078156 162.291214,347.069763 
	C164.499405,347.061951 163.892670,348.649567 164.041748,350.313354 
z"/>
<path fill="#EEEEEE" opacity="1.000000" stroke="none" 
	d="
M303.059753,351.006836 
	C306.253326,356.833099 306.040161,361.885681 302.675232,365.657135 
	C299.633057,369.066833 294.227509,370.214813 289.836639,368.383667 
	C285.370178,366.520996 282.644257,362.119934 283.093201,357.212677 
	C283.507080,352.688232 285.764069,349.346222 290.085449,347.731476 
	C294.930695,345.921021 299.229340,346.957764 303.059753,351.006836 
z"/>
<path fill="#EFEFEF" opacity="1.000000" stroke="none" 
	d="
M217.570831,360.326752 
	C216.846756,354.587830 218.685089,350.391815 223.648697,348.035217 
	C228.121857,345.911530 232.523544,346.492157 236.174896,349.850952 
	C239.841446,353.223755 240.700989,357.572998 238.948685,362.199890 
	C237.166580,366.905518 233.525314,369.192200 228.498749,369.205231 
	C223.048172,369.219360 219.791412,366.640900 217.570831,360.326752 
z"/>
<path fill="#EDEDEE" opacity="1.000000" stroke="none" 
	d="
M113.912193,352.020386 
	C110.238220,357.960480 111.183601,363.382019 115.922447,365.377136 
	C118.600868,366.504730 121.241776,366.312775 123.256699,364.150116 
	C124.740326,362.557709 126.260124,362.352661 128.145203,362.881958 
	C126.408791,367.818268 122.313766,369.973175 116.548744,369.017548 
	C111.296249,368.146851 107.642075,363.651550 107.646088,358.065704 
	C107.650055,352.542084 111.328697,347.935760 116.569153,347.095337 
	C119.962433,346.551178 123.253426,347.000916 125.925949,349.353638 
	C127.061035,350.352875 129.223358,351.611328 127.989769,353.216064 
	C127.068687,354.414246 125.047775,353.799286 123.666496,352.390076 
	C120.774529,349.439636 117.533043,349.566315 113.912193,352.020386 
z"/>
<path fill="#E7E7E8" opacity="1.000000" stroke="none" 
	d="
M85.031204,347.045532 
	C86.153687,347.045593 86.837646,346.946198 87.480347,347.066772 
	C88.757599,347.306366 90.925560,346.190887 90.900612,348.650421 
	C90.875504,351.125275 88.684280,349.790131 87.459381,350.159912 
	C85.877312,350.637512 83.427185,348.963745 82.760773,351.496826 
	C82.035629,354.253174 82.158356,356.883942 86.406708,356.374725 
	C87.629402,356.228180 89.768936,355.451691 89.931656,357.816162 
	C90.105286,360.339050 87.922585,359.577728 86.666893,359.516541 
	C83.939705,359.383636 82.404762,359.772461 82.465050,363.201874 
	C82.531654,366.990234 84.968735,365.799988 86.871368,365.980408 
	C87.530914,366.042969 88.201576,365.977692 88.866203,365.999664 
	C89.863655,366.032623 90.867714,366.011963 90.974998,367.438049 
	C91.085564,368.907745 90.139488,369.008453 89.088440,369.040802 
	C88.756050,369.051025 88.422325,369.031036 88.090675,369.050110 
	C78.802361,369.584015 78.802399,369.584534 78.802406,360.329285 
	C78.802406,357.834412 79.100204,355.295502 78.739159,352.854004 
	C78.029388,348.054352 79.736984,346.079224 85.031204,347.045532 
z"/>
<path fill="#EEEEEE" opacity="1.000000" stroke="none" 
	d="
M373.340057,353.424255 
	C371.043884,357.877380 368.446381,361.837769 369.275604,366.844055 
	C369.487518,368.123566 369.150726,369.161713 367.472931,369.038391 
	C366.610168,368.974976 365.565796,368.876740 365.735779,367.821411 
	C367.016388,359.871277 361.115936,354.309113 358.673798,347.043243 
	C365.520508,347.359070 364.158264,354.279266 367.472870,356.769714 
	C370.931702,354.278656 369.274200,347.411469 375.999603,346.982910 
	C375.875122,349.605408 374.279175,351.190796 373.340057,353.424255 
z"/>
<path fill="#E7E7E8" opacity="1.000000" stroke="none" 
	d="
M267.879028,368.019379 
	C267.696625,368.560577 267.563049,368.704254 267.412140,368.725708 
	C256.802521,370.231262 256.802063,370.230438 256.802582,359.755249 
	C256.802765,356.268311 256.815155,352.781342 256.801422,349.294464 
	C256.796387,348.015411 256.972351,347.026520 258.647064,347.052734 
	C260.252747,347.077942 260.565399,348.003571 260.565460,349.302521 
	C260.565643,353.287567 260.750977,357.283142 260.519287,361.254456 
	C260.324707,364.590149 260.757812,366.783905 264.911682,366.061615 
	C266.021820,365.868591 267.740265,365.446472 267.879028,368.019379 
z"/>
<path fill="#E9E9EA" opacity="1.000000" stroke="none" 
	d="
M60.405846,347.136658 
	C62.888226,349.639709 61.518959,350.386810 59.180103,350.140747 
	C56.376080,349.845703 55.861294,351.142426 55.944515,353.563660 
	C56.086838,357.704437 56.013027,361.854004 55.965794,365.999146 
	C55.950275,367.360809 56.539734,369.150330 54.000664,369.053192 
	C51.535793,368.958893 52.151943,367.190247 52.132664,365.839966 
	C52.075851,361.860931 51.987522,357.875275 52.156227,353.902618 
	C52.265869,351.320862 51.829525,349.720947 48.735439,350.151062 
	C47.638935,350.303497 46.195862,350.292664 46.356838,348.523865 
	C46.506874,346.875305 47.890533,347.083405 49.020313,347.078522 
	C52.668400,347.062714 56.316620,347.078461 60.405846,347.136658 
z"/>
<path fill="#DFDEDF" opacity="1.000000" stroke="none" 
	d="
M414.419495,357.038147 
	C414.422028,354.232178 414.429626,351.908813 414.425171,349.585449 
	C414.422394,348.138977 414.608551,346.966339 416.549103,347.031525 
	C418.323456,347.091095 418.221924,348.268127 418.224243,349.429016 
	C418.235870,355.237457 418.218506,361.045959 418.240326,366.854340 
	C418.245148,368.132477 418.117157,369.101807 416.435333,369.088593 
	C414.912842,369.076599 414.405945,368.388702 414.418793,366.980103 
	C414.447571,363.827271 414.422577,360.673920 414.419495,357.038147 
z"/>
<path fill="#18161D" opacity="1.000000" stroke="none" 
	d="
M248.214050,405.243896 
	C244.450684,401.685883 245.248749,396.479218 246.909576,393.940796 
	C248.649261,391.281891 253.995712,392.526031 257.610168,393.517334 
	C260.837128,394.402344 261.519440,397.314362 261.103149,400.402130 
	C260.597229,404.154999 258.006531,405.209076 254.677948,405.239258 
	C252.679840,405.257355 250.681519,405.253601 248.214050,405.243896 
z"/>
<path fill="#1B1A20" opacity="1.000000" stroke="none" 
	d="
M52.094170,411.149292 
	C52.714405,412.948700 53.448902,414.286896 53.069420,416.067230 
	C49.347607,416.067230 45.585396,416.067230 41.222412,416.067230 
	C43.244434,409.858276 45.163273,403.966187 47.382114,397.152863 
	C49.144154,402.343384 50.568352,406.538727 52.094170,411.149292 
z"/>
<path fill="#18161D" opacity="1.000000" stroke="none" 
	d="
M288.572662,363.276611 
	C287.878754,361.737579 287.186707,360.529022 287.058563,359.263367 
	C286.680298,355.527069 287.638275,352.322083 291.507507,350.794189 
	C295.031708,349.402588 298.148804,350.200012 300.205872,353.352081 
	C302.400055,356.714264 302.294434,360.410278 299.718781,363.499542 
	C297.169098,366.557617 293.798889,366.823181 290.332245,364.859589 
	C289.770905,364.541656 289.329193,364.012512 288.572662,363.276611 
z"/>
<path fill="#19181E" opacity="1.000000" stroke="none" 
	d="
M225.881683,350.714478 
	C230.865372,349.436340 234.120819,351.057281 235.511566,355.619202 
	C236.623337,359.265991 235.773666,362.648621 232.479294,364.825287 
	C229.352676,366.891205 226.024399,366.592560 223.416138,363.884399 
	C220.572006,360.931305 220.484207,357.347626 222.250824,353.745544 
	C222.921585,352.377869 224.023132,351.356201 225.881683,350.714478 
z"/>
</svg>